<svg shape-rendering="geometricPrecision" text-rendering="geometricPrecision" xmlns="http://www.w3.org/2000/svg" width="537" height="546" viewBox="0 0 537 546" version="1.1">
	<path d="M 183.500 2.657 C 168.307 5.898, 155.562 12.624, 144.245 23.370 C 131.061 35.891, 124.570 48.155, 120.544 68.156 C 120.070 70.508, 119.409 70.888, 114.755 71.489 C 102.241 73.105, 90.274 77.325, 80.249 83.658 C 77.087 85.655, 70.900 90.961, 66.500 95.448 C 48.554 113.752, 41.251 138.769, 46.929 162.496 C 47.981 166.893, 48.765 170.522, 48.671 170.558 C 48.577 170.595, 45.017 172.764, 40.759 175.378 C 26.126 184.362, 15.431 196.401, 8.005 212.248 C 2.390 224.230, 0.660 232.247, 0.721 246 C 0.784 259.931, 3.088 269.744, 9.118 281.761 L 13.263 290.022 10.743 295.761 C 1.109 317.706, 0.571 340.987, 9.184 363.321 C 13.072 373.404, 22.366 387.301, 29.742 394.063 C 35.141 399.013, 49.355 409, 51 409 C 51.410 409, 52.042 410.860, 52.405 413.132 C 54.088 423.653, 63.707 440.553, 73.593 450.358 C 83.566 460.248, 92.147 465.294, 107 470 L 115.500 472.694 116.184 478.103 C 116.560 481.078, 118.069 486.845, 119.539 490.919 C 129.115 517.467, 151.700 537.028, 179.210 542.603 C 190.849 544.961, 207.084 544.174, 216.676 540.786 C 226.209 537.419, 236.963 530.130, 242.675 523.162 C 248.292 516.312, 253.406 505.631, 254.963 497.500 C 255.789 493.190, 256.026 467.282, 255.806 405.500 L 255.500 319.500 252.335 312.820 C 248.601 304.938, 242.514 297.980, 235.288 293.337 C 229.386 289.544, 213.899 284.034, 208.852 283.932 C 206.091 283.877, 205.852 283.716, 207.500 283.022 C 208.600 282.558, 212.650 281.464, 216.500 280.591 C 232.856 276.879, 246.290 267.010, 252.292 254.296 L 255.500 247.500 255.774 148.103 C 255.948 84.869, 255.683 46.738, 255.047 43.295 C 254.496 40.318, 252.628 34.911, 250.894 31.278 C 246.955 23.025, 236.923 12.782, 228.314 8.225 C 215.465 1.424, 198.917 -0.633, 183.500 2.657 M 187.319 28.503 C 171.529 31.935, 157.125 43.248, 150.274 57.597 C 146.642 65.203, 146.500 65.899, 146.500 76.120 C 146.500 86.632, 146.543 86.824, 150.750 95.121 C 153.088 99.731, 155 104.690, 155 106.141 C 155 107.591, 154.148 109.831, 153.107 111.116 C 151.692 112.864, 150.200 113.455, 147.202 113.455 C 143.575 113.455, 142.329 112.667, 134.189 105.227 C 125.497 97.284, 125.020 97.001, 120.344 97.015 C 113.391 97.036, 103.565 99.581, 97.093 103.036 C 73.044 115.875, 63.241 144.008, 74.882 166.777 C 76.084 169.130, 79.303 173.522, 82.034 176.538 C 85.005 179.818, 87 182.959, 87 184.356 C 87 188.153, 84.016 190, 77.881 190 C 59.671 190, 41.490 201.779, 32.348 219.500 C 27.488 228.921, 26 235.170, 26 246.155 C 26 260.441, 29.740 270.575, 39.221 281.982 L 44.609 288.464 40.291 294.641 C 26.054 315.006, 24.277 336.935, 35.086 358.863 C 39.957 368.745, 49.695 379.313, 57.617 383.314 L 62.733 385.899 63.308 381.199 C 63.624 378.615, 64.927 373.323, 66.204 369.440 C 74.552 344.052, 98.870 325.958, 124.564 326.016 C 132.632 326.034, 142.878 328.200, 144.113 330.149 C 145.567 332.443, 145.094 335.605, 143.015 337.486 C 141.252 339.082, 140.397 339.155, 135.349 338.141 C 118.552 334.768, 101.827 340.027, 89.473 352.565 C 68.196 374.159, 68.866 409.782, 90.969 432.110 C 98.262 439.477, 104.891 443.290, 114.231 445.492 C 121.843 447.287, 127.250 447.372, 135.629 445.828 C 139.128 445.184, 142.226 444.892, 142.514 445.181 C 142.803 445.470, 142.308 448.810, 141.415 452.603 C 139.286 461.642, 140.053 472.440, 143.471 481.519 C 146.729 490.175, 149.237 494.236, 155.331 500.722 C 164.902 510.909, 177.601 516.780, 192.099 517.719 C 208.782 518.800, 221.037 512.443, 227.141 499.540 L 229.998 493.500 229.999 444.271 L 230 395.041 225.750 398.020 C 223.412 399.658, 219.025 401.864, 216 402.923 C 212.975 403.981, 210.515 405.219, 210.533 405.673 C 210.550 406.128, 211.156 409.779, 211.879 413.786 C 213.553 423.072, 212.209 431.959, 207.791 440.808 C 202.161 452.086, 188.010 462.615, 176.959 463.748 C 172.874 464.168, 172.305 463.964, 171.284 461.723 C 169.663 458.167, 171.837 455.530, 177.584 454.083 C 183.920 452.488, 192.317 446.926, 195.939 441.925 C 201.039 434.886, 203.224 427.591, 202.837 418.898 C 202.556 412.578, 201.909 410.141, 198.999 404.449 C 194.862 396.353, 188.064 390.290, 179.556 387.107 C 172.843 384.595, 160.649 384.314, 154.500 386.529 C 152.300 387.321, 149.728 387.977, 148.785 387.985 C 146.550 388.005, 144.675 384.430, 145.402 381.533 C 146.304 377.940, 155.552 375.015, 166.040 375.006 C 179.524 374.994, 191.811 380.479, 200.739 390.497 L 205.546 395.889 209.878 394.916 C 216.146 393.508, 219.880 391.386, 225.250 386.180 L 230 381.575 230 371.416 C 230 346.961, 219.381 324.522, 200.716 309.535 C 188.411 299.655, 177.343 294.893, 161.058 292.473 C 153.003 291.276, 151.146 290.647, 149.250 288.471 C 146.837 285.701, 146.369 282.048, 148.030 278.945 C 149.432 276.325, 154.204 274.001, 158.200 273.993 C 160.015 273.989, 165.100 273.119, 169.500 272.059 C 199.047 264.941, 220.977 243.079, 228.014 213.726 C 229.600 207.111, 229.986 201.974, 229.984 187.500 L 229.981 169.500 226.897 164.122 C 222.819 157.010, 216.247 150.760, 209.218 147.308 C 204.109 144.799, 202.435 144.500, 193.500 144.500 C 184.266 144.500, 183.086 144.729, 178.100 147.491 C 175.130 149.135, 170.656 152.848, 168.159 155.741 C 163.211 161.472, 159.878 162.510, 157.956 158.918 C 157.042 157.210, 157.293 156.155, 159.355 153.039 C 164.839 144.752, 176.946 137.556, 187.638 136.228 C 193.331 135.521, 193.567 135.370, 195.822 131 C 197.772 127.222, 198.079 125.377, 197.734 119.500 C 197.274 111.672, 195.836 108.256, 190.590 102.529 C 188.616 100.373, 187 98.048, 187 97.361 C 187 96.675, 187.990 95.420, 189.200 94.573 C 191.191 93.178, 191.640 93.189, 193.931 94.690 C 197.433 96.985, 199.608 99.667, 202.695 105.500 C 206.747 113.156, 207.107 126.431, 203.501 135.250 C 202.972 136.545, 203.269 137, 204.643 137.001 C 208.267 137.002, 218.582 142.759, 224.250 147.942 L 230 153.201 230 101.038 L 230 48.876 227.433 43.450 C 224.225 36.669, 218.456 31.839, 210.282 29.091 C 203.234 26.721, 196.327 26.544, 187.319 28.503 M 398.684 42.449 C 396.585 43.197, 394 44.595, 392.939 45.555 C 390.877 47.421, 389.015 52.871, 389.006 57.067 C 389.001 59.086, 387.027 61.257, 379.750 67.245 C 374.663 71.431, 367.125 77.721, 363 81.222 L 355.500 87.587 355.229 106.127 L 354.957 124.668 345.221 134.084 C 339.866 139.263, 329.101 149.688, 321.299 157.250 C 308.475 169.681, 306.772 171, 303.557 171 L 300 171 300 124.468 C 300 75.043, 299.893 73.831, 295.179 69.632 C 292.090 66.881, 284.477 66.288, 280.403 68.482 C 273.718 72.083, 273.998 68.141, 274.015 158.151 C 274.031 246.628, 274.040 246.791, 279.655 257.108 C 282.778 262.846, 289.882 270.154, 295.583 273.496 C 300.874 276.596, 308.765 279.529, 316.852 281.400 C 323.790 283.006, 325.712 284, 321.877 284 C 317.693 284, 308.167 286.862, 300.385 290.458 C 292.078 294.296, 282.676 302.794, 279.201 309.605 C 274.012 319.778, 274 319.995, 274.004 403.144 C 274.007 478.103, 274.068 480.599, 275.960 483.701 C 278.165 487.318, 282.645 490, 286.482 490 C 290.553 490, 295.415 487.533, 297.546 484.386 C 299.400 481.647, 299.515 479.242, 299.789 437.250 L 300.079 393 311.789 392.969 L 323.500 392.937 353 422.979 L 382.500 453.021 399.809 453.666 L 417.118 454.310 419.099 458.194 C 422.916 465.675, 431.486 468.169, 438.088 463.720 C 442.233 460.926, 443.966 457.688, 443.985 452.700 C 444.012 445.864, 440.144 441.069, 433.409 439.590 C 429.575 438.748, 425.379 440.290, 421.500 443.966 L 418.500 446.810 402.040 446.086 L 385.580 445.363 356.040 415.168 L 326.500 384.974 313.250 384.987 L 300 385 300 371.500 L 300 358 320.760 358 L 341.519 358 361 377.500 L 380.481 397 421.262 397 L 462.043 397 463.193 399.525 C 464.915 403.303, 469.992 406, 475.383 406 C 479.241 406, 480.637 405.443, 483.613 402.716 C 486.442 400.123, 487.305 398.473, 487.710 394.881 C 488.670 386.363, 482.850 380.011, 474.079 380.004 C 470.142 380, 469.185 380.493, 465.345 384.500 L 461.034 389 422.257 389 L 383.481 389 364 369.500 L 344.519 350 323.260 350 C 311.567 350, 302 349.788, 302 349.529 C 302 347.311, 308.500 332.123, 311.366 327.642 L 314.975 322 340.781 322 L 366.588 322 383.972 340 L 401.357 358 408.674 358 L 415.990 358 426.526 348.500 L 437.061 339 474.005 339 L 510.949 339 512.469 341.939 C 514.748 346.346, 517.781 348, 523.588 348 C 529.336 348, 532.997 345.840, 535.520 340.961 C 541.383 329.624, 528.663 317.469, 517.161 323.417 C 515.441 324.306, 513.340 326.376, 512.491 328.017 L 510.949 331 472.876 331 L 434.804 331 424.216 340.500 C 414.031 349.640, 413.451 350, 408.947 350 L 404.266 350 386.801 332 L 369.336 314 345.918 313.958 L 322.500 313.917 326.500 310.368 C 336.543 301.459, 351.858 294.716, 366.265 292.859 C 374.888 291.748, 381 289.739, 381 288.016 C 381 287.350, 391.425 287.002, 411.250 287.006 L 441.500 287.013 443.192 289.985 C 445.276 293.648, 450.564 296.991, 454.282 296.996 C 458.914 297.002, 463.568 294.435, 465.970 290.548 C 467.781 287.618, 468.138 285.919, 467.721 282.218 C 467.304 278.517, 466.466 276.899, 463.613 274.284 C 460.657 271.575, 459.230 271, 455.465 271 C 449.765 271, 445.493 273.147, 443.491 277.017 L 441.949 280 412.149 280 L 382.349 280 380 277.500 C 378.708 276.125, 377.055 275, 376.326 275 C 375.597 275, 375 274.617, 375 274.149 C 375 273.225, 408.280 235.563, 410.081 234.450 C 410.686 234.076, 433.528 234.103, 460.840 234.511 L 510.500 235.251 512 238.314 C 514.244 242.897, 518.195 245.333, 523.383 245.333 C 528.579 245.333, 532.282 243.225, 535.044 238.696 C 540.260 230.142, 533.823 219.014, 523.654 219.004 C 519.105 218.999, 514.673 221.374, 512.840 224.798 L 511.524 227.258 459.482 226.523 L 407.440 225.789 394.970 239.648 C 388.111 247.271, 379.157 257.331, 375.072 262.004 C 370.987 266.677, 367.081 271.127, 366.393 271.894 C 365.346 273.059, 364.103 273.085, 358.820 272.051 C 347.392 269.815, 330.572 260.560, 322.563 252.102 L 319.626 249 331.622 249 C 339.698 249, 344.141 248.592, 345.219 247.750 C 346.100 247.063, 351.023 241.738, 356.160 235.917 C 361.297 230.097, 374.926 214.909, 386.446 202.167 L 407.393 179 433.598 179 L 459.802 179 461.824 182.426 C 464.704 187.307, 468.537 189.500, 474.189 189.500 C 478.380 189.500, 479.429 189.038, 482.733 185.733 C 486.186 182.281, 486.500 181.503, 486.500 176.406 C 486.500 171.263, 486.220 170.590, 482.765 167.423 C 479.603 164.525, 478.298 164.001, 474.265 164.004 C 468.800 164.008, 463.545 166.707, 462.483 170.055 L 461.786 172.248 433.143 171.530 L 404.500 170.812 387.913 189.156 C 378.791 199.245, 364.616 215.013, 356.413 224.194 L 341.500 240.889 327 240.694 L 312.500 240.500 307.777 231 C 305.179 225.775, 302.759 219.588, 302.399 217.250 L 301.744 213 314.279 213 L 326.814 213 331.157 207.756 C 333.546 204.871, 340.172 197.109, 345.882 190.506 C 351.592 183.903, 359.977 174.202, 364.515 168.949 C 373.640 158.388, 398.765 128.472, 403.558 122.463 L 406.616 118.629 418.058 117.884 C 424.351 117.475, 433.692 117.108, 438.815 117.070 C 447.960 117.001, 448.175 117.054, 450.638 119.982 C 455.791 126.105, 464.606 126.153, 470.415 120.088 C 478.121 112.045, 471.816 98, 460.500 98 C 455.640 98, 450.139 101.423, 448.431 105.510 C 447.138 108.605, 446.839 108.737, 439.796 109.331 C 435.783 109.670, 425.940 110.245, 417.923 110.610 L 403.346 111.273 392.423 124.222 C 369.477 151.424, 360.900 161.490, 342 183.392 L 322.500 205.990 311.250 205.995 L 300 206 300 192.500 L 300 179 304.754 179 L 309.508 179 336.254 153.354 L 363 127.707 363.080 109.104 L 363.159 90.500 378.158 78.173 L 393.157 65.846 396.479 67.423 C 400.951 69.545, 405.826 69.404, 409.701 67.040 C 413.826 64.525, 416 60.241, 416 54.626 C 416 51.225, 415.353 49.384, 413.297 46.941 C 410.913 44.108, 405.498 40.920, 403.282 41.044 C 402.852 41.068, 400.783 41.700, 398.684 42.449 M 118.466 170.402 C 116.938 171.518, 116.471 173.353, 116.164 179.425 C 115.850 185.638, 116.279 188.650, 118.482 195.716 C 121.673 205.952, 125.872 212.885, 133.044 219.762 C 138.788 225.270, 139.020 224.711, 130.025 227.040 C 127.564 227.677, 122.839 229.557, 119.525 231.217 C 101.408 240.294, 88.354 255.031, 81.955 273.631 C 79.199 281.640, 79.352 285.748, 82.459 287.163 C 86.264 288.897, 89.570 286.244, 90.289 280.880 C 90.603 278.538, 92.763 272.783, 95.087 268.091 C 106.753 244.549, 134.285 230.406, 161.335 234.060 C 168.018 234.963, 169.525 234.886, 171.585 233.536 C 176.574 230.268, 173.403 224, 166.760 224 C 162.049 224, 152.181 220.882, 146.669 217.652 C 139.904 213.687, 132.665 205.115, 129.495 197.314 C 127.275 191.853, 126.676 188.661, 126.474 181.237 C 126.324 175.720, 125.723 171.372, 124.989 170.487 C 123.440 168.620, 120.946 168.587, 118.466 170.402" stroke="none" fill="#000000" fill-rule="evenodd"/>
</svg>