<svg shape-rendering="geometricPrecision" text-rendering="geometricPrecision" xmlns="http://www.w3.org/2000/svg" width="872" height="140" viewBox="0 0 872 140" version="1.1">
	<path d="M 29.676 2.750 C 27.094 7.127, 0 57.098, 0 57.484 C 0 57.768, 2.437 58, 5.416 58 L 10.831 58 22.536 36.454 C 28.974 24.604, 34.463 15.130, 34.734 15.401 C 35.005 15.672, 40.287 25.255, 46.471 36.697 L 57.715 57.500 63.358 57.800 C 66.461 57.965, 69 57.845, 69 57.533 C 69 57.221, 66.819 53.036, 64.152 48.233 C 61.486 43.430, 55.798 32.975, 51.512 25 C 38.069 -0.013, 39.557 2, 34.517 2 C 32.098 2, 29.919 2.337, 29.676 2.750 M 127.020 3.752 C 117.989 8.289, 115.260 21.402, 121.743 29.107 C 126.046 34.220, 129.229 35, 145.794 35 C 160.031 35, 160.742 35.097, 162.826 37.314 C 165.506 40.168, 165.592 43.046, 163.090 46.139 C 161.208 48.466, 160.876 48.504, 140.090 48.806 L 119 49.112 119 53.624 L 119 58.135 141.750 57.818 C 163.715 57.511, 164.613 57.420, 167.765 55.171 C 172.186 52.018, 174.001 48.123, 173.996 41.800 C 173.992 35.539, 171.576 30.932, 166.759 27.995 C 163.896 26.249, 161.704 26.007, 148.700 26.004 C 130.707 25.999, 128 25.100, 128 19.129 C 128 12.349, 128.883 12.079, 152.055 11.771 L 172.500 11.500 172.805 6.750 L 173.110 2 151.805 2.002 C 133.517 2.003, 130.007 2.251, 127.020 3.752 M 219.760 5.750 C 219.508 7.813, 219.507 10.063, 219.758 10.750 C 220.089 11.656, 223.552 12, 232.357 12 L 244.500 11.999 244.500 34.750 L 244.500 57.500 249.250 57.805 L 254 58.110 254 35.055 L 254 12 266.500 12 L 279 12 279 7 L 279 2 249.609 2 L 220.219 2 219.760 5.750 M 325.192 6.683 L 325.500 11.500 347.612 11.769 C 368.491 12.023, 369.828 12.152, 371.589 14.099 C 374.274 17.065, 374.072 23.371, 371.202 26.245 C 369.021 28.428, 368.243 28.510, 346.974 28.804 L 325 29.108 325 43.609 L 325 58.110 329.750 57.805 L 334.500 57.500 334.786 47.750 L 335.072 38 344.932 38 L 354.792 38 363.451 48 L 372.110 58 378.139 58 L 384.168 58 381.149 54.250 C 379.489 52.188, 375.922 47.849, 373.222 44.608 L 368.315 38.716 373.404 36.058 C 379.943 32.641, 382.961 27.631, 382.984 20.151 C 383.005 13.241, 380.682 8.480, 375.670 5.161 L 371.652 2.500 348.269 2.183 L 324.885 1.866 325.192 6.683 M 452.751 12.200 C 449.740 17.865, 443.164 30.205, 438.138 39.621 C 433.112 49.038, 429 57.026, 429 57.371 C 429 58.565, 438.755 58.001, 439.734 56.750 C 440.272 56.063, 443.084 51, 445.982 45.500 C 461.966 15.172, 462.275 14.656, 463.468 16.287 C 464.096 17.147, 469.311 26.872, 475.055 37.898 L 485.500 57.946 490.750 57.973 C 493.765 57.988, 496 57.553, 496 56.951 C 496 56.374, 489.501 43.886, 481.558 29.201 L 467.116 2.500 462.671 2.200 L 458.226 1.900 452.751 12.200 M 542 30 L 542 58 547 58 L 552 58 552 39.399 L 552 20.799 562.194 33.399 C 567.800 40.330, 573.088 45.974, 573.944 45.943 C 574.800 45.911, 580 40.419, 585.500 33.738 L 595.500 21.592 595.773 39.850 L 596.046 58.108 600.773 57.804 L 605.500 57.500 605.500 30 L 605.500 2.500 602.359 2.195 C 599.515 1.918, 598.621 2.627, 592.890 9.695 C 583.384 21.418, 574.765 31.462, 573.915 31.807 C 573.499 31.976, 567.708 25.338, 561.046 17.057 C 549.635 2.873, 548.732 2, 545.467 2 L 542 2 542 30 M 655 30 L 655 58 659.500 58 L 664 58 664 30 L 664 2 659.500 2 L 655 2 655 30 M 714.667 2.667 C 714.300 3.033, 714 15.633, 714 30.667 L 714 58 719 58 L 724 58 724 39.417 C 724 28.204, 724.374 20.966, 724.943 21.167 C 725.462 21.350, 734.312 29.600, 744.610 39.500 C 762.642 56.836, 763.483 57.500, 767.415 57.500 L 771.497 57.500 771.374 38 C 771.307 27.275, 771.195 14.787, 771.126 10.250 L 771 2 766.521 2 L 762.042 2 761.771 21.488 L 761.500 40.975 757.500 37.345 C 755.300 35.348, 746.011 26.578, 736.858 17.857 C 724.682 6.256, 719.561 2, 717.775 2 C 716.432 2, 715.033 2.300, 714.667 2.667 M 820.192 6.667 L 820.500 11.500 836.550 12 C 854.246 12.551, 856.258 13.175, 860.097 19.304 C 861.759 21.958, 862.048 23.888, 861.800 30.677 C 861.464 39.842, 859.907 42.959, 853.895 46.500 C 851.021 48.193, 848.122 48.577, 835 49 L 819.500 49.500 819.500 53.500 L 819.500 57.500 837 57.500 C 853.154 57.500, 854.819 57.330, 858.643 55.284 C 867.802 50.386, 872 42.167, 872 29.132 C 872 17.356, 867.718 9.568, 858.553 4.676 C 854.937 2.747, 852.633 2.477, 837.192 2.173 L 819.884 1.833 820.192 6.667 M 407.565 119.250 C 403.327 129.287, 399.778 137.950, 399.680 138.500 C 399.581 139.050, 400.933 139.639, 402.684 139.808 C 406.430 140.171, 406.158 140.583, 412.527 124.934 C 415.086 118.646, 417.508 112.914, 417.909 112.198 C 418.355 111.401, 420.943 116.453, 424.569 125.197 C 429.583 137.289, 430.859 139.551, 432.823 139.829 C 438.077 140.573, 438.150 139.601, 433.619 129.296 C 431.250 123.908, 427.603 115.338, 425.514 110.250 C 421.831 101.283, 421.616 101, 418.493 101 L 415.271 101 407.565 119.250 M 461.228 120.250 L 461.500 139.500 464.750 139.813 L 468 140.127 468 120.563 L 468 101 464.478 101 L 460.957 101 461.228 120.250 M 118.744 119.750 C 118.539 120.162, 118.399 121.175, 118.435 122 C 118.492 123.323, 132.704 123.530, 239 123.757 C 305.275 123.899, 360.028 123.814, 360.672 123.568 C 361.317 123.323, 361.602 122.195, 361.306 121.061 L 360.767 119 239.942 119 C 173.489 119, 118.950 119.338, 118.744 119.750 M 509.180 121.250 L 509.500 123.500 631.500 123.500 L 753.500 123.500 753.820 121.250 L 754.139 119 631.500 119 L 508.861 119 509.180 121.250" stroke="none" fill="#000000" fill-rule="evenodd"/>
</svg>